AC-Jade.ufo
<glyph name="ampersand" format="2">
	<advance width="667"/>
	<unicode hex="0026"/>
	<outline>
		<contour>
			<point x="315" y="-11" type="curve" smooth="yes"/>
			<point x="435" y="-11"/>
			<point x="549" y="39"/>
			<point x="542" y="137" type="curve" smooth="yes"/>
			<point x="537" y="210"/>
			<point x="535" y="283"/>
			<point x="539" y="356" type="curve"/>
			<point x="447" y="356" type="line"/>
			<point x="453" y="257"/>
			<point x="454" y="157"/>
			<point x="450" y="58" type="curve"/>
			<point x="459" y="115" type="line"/>
			<point x="436" y="92"/>
			<point x="375" y="77"/>
			<point x="315" y="77" type="curve" smooth="yes"/>
			<point x="204" y="77"/>
			<point x="155" y="113"/>
			<point x="155" y="196" type="curve" smooth="yes"/>
			<point x="155" y="309"/>
			<point x="241" y="319"/>
			<point x="351" y="319" type="curve" smooth="yes"/>
			<point x="523" y="319"/>
			<point x="569" y="318"/>
			<point x="639" y="310" type="curve"/>
			<point x="647" y="314" type="line"/>
			<point x="647" y="386" type="line"/>
			<point x="639" y="390" type="line"/>
			<point x="607" y="386"/>
			<point x="565" y="386"/>
			<point x="416" y="386" type="curve" smooth="yes"/>
			<point x="322" y="386"/>
			<point x="201" y="398"/>
			<point x="201" y="503" type="curve" smooth="yes"/>
			<point x="201" y="574"/>
			<point x="234" y="605"/>
			<point x="309" y="605" type="curve" smooth="yes"/>
			<point x="360" y="605"/>
			<point x="421" y="592"/>
			<point x="480" y="559" type="curve"/>
			<point x="448" y="623" type="line"/>
			<point x="450" y="482" type="line"/>
			<point x="518" y="480" type="line"/>
			<point x="522" y="507"/>
			<point x="527" y="549"/>
			<point x="527" y="589" type="curve" smooth="yes"/>
			<point x="527" y="650"/>
			<point x="418" y="680"/>
			<point x="315" y="680" type="curve" smooth="yes"/>
			<point x="184" y="680"/>
			<point x="101" y="613"/>
			<point x="101" y="506" type="curve" smooth="yes"/>
			<point x="101" y="422"/>
			<point x="172" y="365"/>
			<point x="284" y="358" type="curve"/>
			<point x="282" y="365" type="line"/>
			<point x="143" y="364"/>
			<point x="55" y="294"/>
			<point x="55" y="184" type="curve" smooth="yes"/>
			<point x="55" y="64"/>
			<point x="155" y="-11"/>
		</contour>
	</outline>
</glyph>
<glyph name="parenright" format="2">
	<advance width="334"/>
	<unicode hex="0029"/>
	<outline>
		<contour>
			<point x="54" y="-125" type="line"/>
			<point x="188.32836" y="-28.48259"/>
			<point x="274" y="146.89552"/>
			<point x="274" y="326" type="curve" smooth="yes"/>
			<point x="274" y="505.10448"/>
			<point x="188.32836" y="680.48259"/>
			<point x="54" y="777" type="curve"/>
			<point x="46" y="776" type="line"/>
			<point x="10" y="727" type="line"/>
			<point x="10" y="720" type="line"/>
			<point x="110.49751" y="649.35323"/>
			<point x="174" y="497.14428"/>
			<point x="174" y="326" type="curve" smooth="yes"/>
			<point x="174" y="155.85075"/>
			<point x="110.49751" y="3.64677"/>
			<point x="10" y="-67" type="curve"/>
			<point x="10" y="-74" type="line"/>
			<point x="46" y="-124" type="line"/>
		</contour>
	</outline>
</glyph>
<glyph name="three" format="2">
	<advance width="589"/>
	<unicode hex="0033"/>
	<outline>
		<contour>
			<point x="259" y="-12" type="curve" smooth="yes"/>
			<point x="389" y="-12"/>
			<point x="514" y="51"/>
			<point x="514" y="201" type="curve" smooth="yes"/>
			<point x="514" y="320"/>
			<point x="433" y="383"/>
			<point x="292" y="383" type="curve"/>
			<point x="292" y="380" type="line"/>
			<point x="404" y="387"/>
			<point x="468" y="453"/>
			<point x="468" y="541" type="curve" smooth="yes"/>
			<point x="468" y="657"/>
			<point x="374" y="710"/>
			<point x="268" y="710" type="curve" smooth="yes"/>
			<point x="208" y="710"/>
			<point x="144" y="694"/>
			<point x="89" y="663" type="curve"/>
			<point x="86" y="658" type="line"/>
			<point x="113" y="588" type="line"/>
			<point x="117" y="586" type="line"/>
			<point x="160" y="606"/>
			<point x="213" y="620"/>
			<point x="260" y="620" type="curve" smooth="yes"/>
			<point x="321" y="620"/>
			<point x="370" y="596"/>
			<point x="370" y="527" type="curve" smooth="yes"/>
			<point x="370" y="455"/>
			<point x="324" y="418"/>
			<point x="241" y="418" type="curve" smooth="yes"/>
			<point x="202" y="418" type="line"/>
			<point x="202" y="336" type="line"/>
			<point x="245" y="338" type="line" smooth="yes"/>
			<point x="352" y="343"/>
			<point x="414" y="302"/>
			<point x="414" y="213" type="curve" smooth="yes"/>
			<point x="414" y="125"/>
			<point x="356" y="78"/>
			<point x="255" y="78" type="curve" smooth="yes"/>
			<point x="200" y="78"/>
			<point x="139" y="93"/>
			<point x="87" y="108" type="curve"/>
			<point x="83" y="106" type="line"/>
			<point x="55" y="44" type="line"/>
			<point x="58" y="39" type="line"/>
			<point x="115" y="6"/>
			<point x="188" y="-12"/>
		</contour>
	</outline>
</glyph>
<glyph name="seven" format="2">
	<advance width="489"/>
	<unicode hex="0037"/>
	<outline>
		<contour>
			<point x="111" y="0" type="line"/>
			<point x="206" y="0" type="line"/>
			<point x="214" y="10" type="line"/>
			<point x="254" y="124"/>
			<point x="386" y="461"/>
			<point x="455" y="607" type="curve" smooth="yes"/>
			<point x="471" y="640"/>
			<point x="466" y="700"/>
			<point x="444" y="700" type="curve"/>
			<point x="379" y="696"/>
			<point x="313" y="696"/>
			<point x="238" y="696" type="curve" smooth="yes"/>
			<point x="186" y="696"/>
			<point x="123" y="696"/>
			<point x="71" y="700" type="curve"/>
			<point x="49" y="700"/>
			<point x="36" y="687"/>
			<point x="32" y="662" type="curve" smooth="yes"/>
			<point x="27" y="636"/>
			<point x="25" y="595"/>
			<point x="25" y="539" type="curve"/>
			<point x="87" y="535" type="line"/>
			<point x="111" y="635" type="line"/>
			<point x="79" y="610" type="line"/>
			<point x="127" y="615"/>
			<point x="185" y="615"/>
			<point x="233" y="615" type="curve" smooth="yes"/>
			<point x="292" y="615"/>
			<point x="362" y="615"/>
			<point x="421" y="610" type="curve"/>
			<point x="386" y="638" type="line"/>
			<point x="289" y="466"/>
			<point x="174" y="195"/>
			<point x="106" y="10" type="curve"/>
		</contour>
	</outline>
</glyph>
<glyph name="semicolon" format="2">
	<advance width="251"/>
	<unicode hex="003B"/>
	<outline>
		<contour>
			<point x="106" y="-208" type="line"/>
			<point x="148.78607" y="-132.37811"/>
			<point x="205" y="-43"/>
			<point x="205" y="63" type="curve" smooth="yes"/>
			<point x="205" y="124"/>
			<point x="182" y="151"/>
			<point x="130" y="151" type="curve" smooth="yes"/>
			<point x="78" y="151"/>
			<point x="55" y="124"/>
			<point x="55" y="63" type="curve" smooth="yes"/>
			<point x="55" y="13"/>
			<point x="78" y="-9"/>
			<point x="130" y="-9" type="curve"/>
			<point x="106" y="40" type="line"/>
			<point x="102.03926" y="-23.37174"/>
			<point x="92.8209" y="-65.59701"/>
			<point x="57" y="-185" type="curve"/>
		</contour>
		<contour>
			<point x="128" y="351" type="curve" smooth="yes"/>
			<point x="174" y="351"/>
			<point x="200" y="378"/>
			<point x="200" y="427" type="curve" smooth="yes"/>
			<point x="200" y="471"/>
			<point x="174" y="496"/>
			<point x="128" y="496" type="curve" smooth="yes"/>
			<point x="81" y="496"/>
			<point x="55" y="471"/>
			<point x="55" y="427" type="curve" smooth="yes"/>
			<point x="55" y="378"/>
			<point x="81" y="351"/>
		</contour>
	</outline>
</glyph>
<glyph name="B" format="2">
	<advance width="581"/>
	<unicode hex="0042"/>
	<outline>
		<contour>
			<point x="90" y="0" type="line"/>
			<point x="290" y="0" type="line" smooth="yes"/>
			<point x="441" y="0"/>
			<point x="531" y="63"/>
			<point x="531" y="201" type="curve" smooth="yes"/>
			<point x="531" y="339"/>
			<point x="440" y="399"/>
			<point x="272" y="384" type="curve"/>
			<point x="293" y="370" type="line"/>
			<point x="404" y="377"/>
			<point x="485" y="441"/>
			<point x="485" y="541" type="curve" smooth="yes"/>
			<point x="485" y="643"/>
			<point x="408" y="705"/>
			<point x="287" y="705" type="curve" smooth="yes"/>
			<point x="90" y="705" type="line"/>
			<point x="85" y="696" type="line"/>
			<point x="89" y="600"/>
			<point x="90" y="479"/>
			<point x="90" y="368" type="curve" smooth="yes"/>
			<point x="90" y="252"/>
			<point x="89" y="115"/>
			<point x="85" y="12" type="curve"/>
		</contour>
		<contour>
			<point x="185" y="66" type="line"/>
			<point x="182" y="158"/>
			<point x="180" y="270"/>
			<point x="180" y="369" type="curve" smooth="yes"/>
			<point x="180" y="450"/>
			<point x="182" y="551"/>
			<point x="185" y="647" type="curve"/>
			<point x="175" y="620" type="line"/>
			<point x="268" y="620" type="line" smooth="yes"/>
			<point x="348" y="620"/>
			<point x="385" y="592"/>
			<point x="385" y="519" type="curve" smooth="yes"/>
			<point x="385" y="457"/>
			<point x="346" y="408"/>
			<point x="258" y="408" type="curve" smooth="yes"/>
			<point x="179" y="408" type="line"/>
			<point x="179" y="336" type="line"/>
			<point x="262" y="338" type="line" smooth="yes"/>
			<point x="370" y="341"/>
			<point x="431" y="304"/>
			<point x="431" y="213" type="curve" smooth="yes"/>
			<point x="431" y="122"/>
			<point x="379" y="85"/>
			<point x="260" y="85" type="curve" smooth="yes"/>
			<point x="135" y="85" type="line"/>
		</contour>
	</outline>
</glyph>
<glyph name="C" format="2">
	<advance width="608"/>
	<unicode hex="0043"/>
	<outline>
		<contour>
			<point x="371" y="-10" type="curve" smooth="yes"/>
			<point x="448" y="-10"/>
			<point x="517" y="15"/>
			<point x="560" y="39" type="curve"/>
			<point x="563" y="44" type="line"/>
			<point x="535" y="106" type="line"/>
			<point x="531" y="108" type="line"/>
			<point x="476" y="92"/>
			<point x="427" y="80"/>
			<point x="379" y="80" type="curve" smooth="yes"/>
			<point x="237" y="80"/>
			<point x="175" y="162"/>
			<point x="175" y="350" type="curve" smooth="yes"/>
			<point x="175" y="538"/>
			<point x="237" y="620"/>
			<point x="379" y="620" type="curve" smooth="yes"/>
			<point x="440" y="620"/>
			<point x="475" y="607"/>
			<point x="526" y="586" type="curve"/>
			<point x="530" y="588" type="line"/>
			<point x="559" y="665" type="line"/>
			<point x="556" y="670" type="line"/>
			<point x="519" y="689"/>
			<point x="459" y="710"/>
			<point x="371" y="710" type="curve" smooth="yes"/>
			<point x="181" y="710"/>
			<point x="75" y="581"/>
			<point x="75" y="350" type="curve" smooth="yes"/>
			<point x="75" y="119"/>
			<point x="181" y="-10"/>
		</contour>
	</outline>
</glyph>
<glyph name="E" format="2">
	<advance width="495"/>
	<unicode hex="0045"/>
	<outline>
		<contour>
			<point x="90" y="0" type="line"/>
			<point x="135" y="3"/>
			<point x="181" y="5"/>
			<point x="275" y="4" type="curve" smooth="yes"/>
			<point x="316" y="4"/>
			<point x="437" y="3"/>
			<point x="450" y="0" type="curve"/>
			<point x="455" y="10" type="line"/>
			<point x="455" y="81" type="line"/>
			<point x="450" y="90" type="line"/>
			<point x="345" y="83"/>
			<point x="296" y="82"/>
			<point x="159" y="82" type="curve"/>
			<point x="193" y="53" type="line"/>
			<point x="185" y="116"/>
			<point x="185" y="271"/>
			<point x="185" y="335" type="curve" smooth="yes"/>
			<point x="185" y="399"/>
			<point x="185" y="584"/>
			<point x="193" y="647" type="curve"/>
			<point x="159" y="618" type="line"/>
			<point x="300" y="618"/>
			<point x="347" y="617"/>
			<point x="450" y="610" type="curve"/>
			<point x="455" y="619" type="line"/>
			<point x="455" y="690" type="line"/>
			<point x="450" y="700" type="line"/>
			<point x="390" y="697"/>
			<point x="329" y="697"/>
			<point x="269" y="696" type="curve" smooth="yes"/>
			<point x="213" y="695"/>
			<point x="179" y="696"/>
			<point x="156" y="697" type="curve" smooth="yes"/>
			<point x="133" y="698"/>
			<point x="111" y="699"/>
			<point x="90" y="700" type="curve"/>
			<point x="85" y="690" type="line"/>
			<point x="89" y="631"/>
			<point x="95" y="426"/>
			<point x="95" y="335" type="curve" smooth="yes"/>
			<point x="95" y="244"/>
			<point x="89" y="69"/>
			<point x="85" y="10" type="curve"/>
		</contour>
		<contour>
			<point x="386" y="305" type="curve"/>
			<point x="396" y="309" type="line"/>
			<point x="396" y="391" type="line"/>
			<point x="386" y="395" type="line"/>
			<point x="320" y="390"/>
			<point x="255" y="387"/>
			<point x="155" y="387" type="curve"/>
			<point x="155" y="313" type="line"/>
			<point x="256" y="313"/>
			<point x="317" y="310"/>
		</contour>
	</outline>
</glyph>
<glyph name="F" format="2">
	<advance width="477"/>
	<unicode hex="0046"/>
	<outline>
		<contour>
			<point x="90" y="-2" type="line"/>
			<point x="116" y="-1"/>
			<point x="173" y="-1"/>
			<point x="199" y="-2" type="curve"/>
			<point x="206" y="8" type="line"/>
			<point x="197" y="100"/>
			<point x="192" y="153"/>
			<point x="192" y="361" type="curve" smooth="yes"/>
			<point x="192" y="419"/>
			<point x="192" y="587"/>
			<point x="200" y="645" type="curve"/>
			<point x="176" y="617" type="line"/>
			<point x="237" y="617"/>
			<point x="402" y="611"/>
			<point x="447" y="609" type="curve"/>
			<point x="452" y="618" type="line"/>
			<point x="452" y="688" type="line"/>
			<point x="447" y="698" type="line"/>
			<point x="436" y="698"/>
			<point x="338" y="696"/>
			<point x="291" y="696" type="curve" smooth="yes"/>
			<point x="232" y="696"/>
			<point x="122" y="699"/>
			<point x="97" y="698" type="curve"/>
			<point x="92" y="688" type="line"/>
			<point x="97" y="619"/>
			<point x="101" y="430"/>
			<point x="101" y="355" type="curve" smooth="yes"/>
			<point x="101" y="277"/>
			<point x="89" y="82"/>
			<point x="85" y="8" type="curve"/>
		</contour>
		<contour>
			<point x="383" y="291" type="curve"/>
			<point x="393" y="295" type="line"/>
			<point x="393" y="377" type="line"/>
			<point x="383" y="381" type="line"/>
			<point x="343" y="379"/>
			<point x="200" y="373"/>
			<point x="142" y="373" type="curve"/>
			<point x="142" y="299" type="line"/>
			<point x="208" y="299"/>
			<point x="337" y="293"/>
		</contour>
	</outline>
</glyph>
<glyph name="I" format="2">
	<advance width="441"/>
	<unicode hex="0049"/>
	<outline>
		<contour>
			<point x="168" y="55" type="curve"/>
			<point x="274" y="55" type="line"/>
			<point x="271" y="108"/>
			<point x="266" y="256"/>
			<point x="266" y="335" type="curve" smooth="yes"/>
			<point x="266" y="415"/>
			<point x="271" y="587"/>
			<point x="274" y="636" type="curve"/>
			<point x="245" y="610" type="line"/>
			<point x="262" y="609"/>
			<point x="285" y="609"/>
			<point x="314" y="608" type="curve" smooth="yes"/>
			<point x="343" y="607"/>
			<point x="368" y="606"/>
			<point x="389" y="605" type="curve"/>
			<point x="399" y="613" type="line"/>
			<point x="399" y="692" type="line"/>
			<point x="392" y="700" type="line"/>
			<point x="324" y="699"/>
			<point x="272" y="698"/>
			<point x="220" y="698" type="curve" smooth="yes"/>
			<point x="169" y="698"/>
			<point x="115" y="699"/>
			<point x="46" y="700" type="curve"/>
			<point x="40" y="693" type="line"/>
			<point x="40" y="613" type="line"/>
			<point x="46" y="605" type="line"/>
			<point x="75" y="608"/>
			<point x="101" y="609"/>
			<point x="124" y="610" type="curve" smooth="yes"/>
			<point x="147" y="610"/>
			<point x="169" y="610"/>
			<point x="190" y="611" type="curve"/>
			<point x="168" y="638" type="line"/>
			<point x="171" y="589"/>
			<point x="176" y="415"/>
			<point x="176" y="335" type="curve" smooth="yes"/>
			<point x="176" y="256"/>
			<point x="171" y="108"/>
		</contour>
		<contour>
			<point x="47" y="-2" type="line"/>
			<point x="116" y="-1"/>
			<point x="169" y="0"/>
			<point x="221" y="0" type="curve" smooth="yes"/>
			<point x="273" y="0"/>
			<point x="324" y="-1"/>
			<point x="392" y="-2" type="curve"/>
			<point x="401" y="11" type="line"/>
			<point x="401" y="78" type="line"/>
			<point x="389" y="93" type="line"/>
			<point x="322" y="88"/>
			<point x="271" y="86"/>
			<point x="220" y="86" type="curve" smooth="yes"/>
			<point x="168" y="86"/>
			<point x="114" y="88"/>
			<point x="46" y="93" type="curve"/>
			<point x="40" y="78" type="line"/>
			<point x="40" y="10" type="line"/>
		</contour>
	</outline>
</glyph>
<glyph name="M" format="2">
	<advance width="889"/>
	<unicode hex="004D"/>
	<guideline x="388" y="551" angle="0"/>
	<guideline x="479" y="314" angle="0"/>
	<outline>
		<contour>
			<point x="66" y="0" type="line"/>
			<point x="154" y="0" type="line"/>
			<point x="158" y="10" type="line"/>
			<point x="174" y="214"/>
			<point x="205" y="422"/>
			<point x="236" y="650" type="curve"/>
			<point x="194" y="650" type="line"/>
			<point x="243" y="523"/>
			<point x="344" y="178"/>
			<point x="381" y="10" type="curve"/>
			<point x="388" y="0" type="line"/>
			<point x="499" y="0" type="line"/>
			<point x="506" y="9" type="line"/>
			<point x="544" y="164"/>
			<point x="642" y="493"/>
			<point x="677" y="650" type="curve"/>
			<point x="644" y="650" type="line"/>
			<point x="665" y="482"/>
			<point x="697" y="248"/>
			<point x="723" y="10" type="curve"/>
			<point x="730" y="0" type="line"/>
			<point x="824" y="0" type="line"/>
			<point x="829" y="10" type="line"/>
			<point x="801" y="174"/>
			<point x="747" y="518"/>
			<point x="734" y="694" type="curve"/>
			<point x="720" y="700" type="line"/>
			<point x="604" y="700" type="line"/>
			<point x="598" y="692" type="line"/>
			<point x="560" y="492"/>
			<point x="488" y="270"/>
			<point x="438" y="63" type="curve"/>
			<point x="468" y="63" type="line"/>
			<point x="410" y="277"/>
			<point x="335" y="484"/>
			<point x="290" y="693" type="curve"/>
			<point x="284" y="700" type="line"/>
			<point x="162" y="700" type="line"/>
			<point x="154" y="694" type="line"/>
			<point x="141" y="506"/>
			<point x="95" y="197"/>
			<point x="60" y="10" type="curve"/>
		</contour>
	</outline>
</glyph>
<glyph name="P" format="2">
	<advance width="575"/>
	<unicode hex="0050"/>
	<outline>
		<contour>
			<point x="90" y="0" type="line"/>
			<point x="195" y="0" type="line"/>
			<point x="200" y="10" type="line"/>
			<point x="197" y="57"/>
			<point x="185" y="159"/>
			<point x="185" y="343" type="curve" smooth="yes"/>
			<point x="185" y="521"/>
			<point x="188" y="570"/>
			<point x="191" y="657" type="curve"/>
			<point x="161" y="620" type="line"/>
			<point x="261" y="620" type="line" smooth="yes"/>
			<point x="383" y="620"/>
			<point x="437" y="572"/>
			<point x="437" y="463" type="curve" smooth="yes"/>
			<point x="437" y="353"/>
			<point x="381" y="305"/>
			<point x="252" y="305" type="curve" smooth="yes"/>
			<point x="178" y="305" type="line"/>
			<point x="178" y="225" type="line"/>
			<point x="257" y="225" type="line" smooth="yes"/>
			<point x="432" y="225"/>
			<point x="530" y="310"/>
			<point x="530" y="461" type="curve" smooth="yes"/>
			<point x="530" y="618"/>
			<point x="434" y="705"/>
			<point x="261" y="705" type="curve" smooth="yes"/>
			<point x="90" y="705" type="line"/>
			<point x="85" y="695" type="line"/>
			<point x="88" y="642"/>
			<point x="95" y="519"/>
			<point x="95" y="343" type="curve" smooth="yes"/>
			<point x="95" y="159"/>
			<point x="88" y="66"/>
			<point x="85" y="10" type="curve"/>
		</contour>
	</outline>
</glyph>
<glyph name="S" format="2">
	<advance width="525"/>
	<unicode hex="0053"/>
	<outline>
		<contour>
			<point x="250" y="-11" type="curve" smooth="yes"/>
			<point x="368" y="-11"/>
			<point x="480" y="42"/>
			<point x="480" y="194" type="curve" smooth="yes"/>
			<point x="480" y="443"/>
			<point x="157" y="389"/>
			<point x="157" y="535" type="curve" smooth="yes"/>
			<point x="157" y="597"/>
			<point x="214" y="620"/>
			<point x="279" y="620" type="curve" smooth="yes"/>
			<point x="332" y="620"/>
			<point x="391" y="605"/>
			<point x="430" y="575" type="curve"/>
			<point x="438" y="575" type="line"/>
			<point x="478" y="636" type="line"/>
			<point x="476" y="644" type="line"/>
			<point x="410" y="689"/>
			<point x="339" y="710"/>
			<point x="275" y="710" type="curve" smooth="yes"/>
			<point x="160" y="710"/>
			<point x="67" y="645"/>
			<point x="67" y="536" type="curve" smooth="yes"/>
			<point x="67" y="304"/>
			<point x="390" y="358"/>
			<point x="390" y="189" type="curve" smooth="yes"/>
			<point x="390" y="106"/>
			<point x="329" y="77"/>
			<point x="258" y="77" type="curve" smooth="yes"/>
			<point x="204" y="77"/>
			<point x="139" y="94"/>
			<point x="79" y="120" type="curve"/>
			<point x="71" y="119" type="line"/>
			<point x="45" y="50" type="line"/>
			<point x="49" y="42" type="line"/>
			<point x="109" y="13"/>
			<point x="182" y="-11"/>
		</contour>
	</outline>
</glyph>
<glyph name="T" format="2">
	<advance width="538"/>
	<unicode hex="0054"/>
	<outline>
		<contour>
			<point x="226" y="-4" type="line"/>
			<point x="318" y="-4" type="line"/>
			<point x="323" y="6" type="line"/>
			<point x="317" y="113"/>
			<point x="317" y="220"/>
			<point x="317" y="347" type="curve" smooth="yes"/>
			<point x="317" y="511"/>
			<point x="317" y="618"/>
			<point x="317" y="630" type="curve"/>
			<point x="227" y="630" type="line"/>
			<point x="227" y="618"/>
			<point x="227" y="513"/>
			<point x="227" y="348" type="curve" smooth="yes"/>
			<point x="227" y="219"/>
			<point x="227" y="113"/>
			<point x="221" y="6" type="curve"/>
		</contour>
		<contour>
			<point x="45" y="601" type="line"/>
			<point x="118" y="608"/>
			<point x="155" y="612"/>
			<point x="270" y="612" type="curve" smooth="yes"/>
			<point x="387" y="612"/>
			<point x="418" y="608"/>
			<point x="493" y="601" type="curve"/>
			<point x="503" y="606" type="line"/>
			<point x="503" y="695" type="line"/>
			<point x="493" y="700" type="line"/>
			<point x="437" y="699"/>
			<point x="326" y="697"/>
			<point x="270" y="697" type="curve" smooth="yes"/>
			<point x="194" y="697"/>
			<point x="101" y="699"/>
			<point x="45" y="700" type="curve"/>
			<point x="35" y="695" type="line"/>
			<point x="35" y="606" type="line"/>
		</contour>
	</outline>
</glyph>
<glyph name="V" format="2">
	<advance width="596"/>
	<unicode hex="0056"/>
	<outline>
		<contour>
			<point x="231" y="0" type="line"/>
			<point x="359" y="0" type="line"/>
			<point x="365" y="10" type="line"/>
			<point x="416" y="200"/>
			<point x="498" y="472"/>
			<point x="576" y="687" type="curve"/>
			<point x="571" y="697" type="line"/>
			<point x="564" y="697"/>
			<point x="488" y="697"/>
			<point x="481" y="697" type="curve"/>
			<point x="475" y="687" type="line"/>
			<point x="434" y="499"/>
			<point x="338" y="224"/>
			<point x="291" y="40" type="curve"/>
			<point x="319" y="40" type="line"/>
			<point x="263" y="231"/>
			<point x="179" y="473"/>
			<point x="131" y="692" type="curve"/>
			<point x="124" y="700" type="line"/>
			<point x="117" y="700"/>
			<point x="33" y="700"/>
			<point x="26" y="700" type="curve"/>
			<point x="20" y="690" type="line"/>
			<point x="105" y="473"/>
			<point x="168" y="227"/>
			<point x="225" y="10" type="curve"/>
		</contour>
	</outline>
</glyph>
<glyph name="b" format="2">
	<advance width="562"/>
	<unicode hex="0062"/>
	<outline>
		<contour>
			<point x="334" y="-10" type="curve" smooth="yes"/>
			<point x="444.44776" y="-10"/>
			<point x="507" y="94.81592"/>
			<point x="507" y="258" type="curve" smooth="yes"/>
			<point x="507" y="283" type="line" smooth="yes"/>
			<point x="507" y="449.16915"/>
			<point x="453.44279" y="520"/>
			<point x="342" y="520" type="curve" smooth="yes"/>
			<point x="269.36318" y="520"/>
			<point x="224.85572" y="484.77114"/>
			<point x="196" y="439" type="curve"/>
			<point x="168" y="439" type="line"/>
			<point x="191" y="255" type="line"/>
			<point x="191" y="395.29851"/>
			<point x="244.32338" y="440"/>
			<point x="309" y="440" type="curve" smooth="yes"/>
			<point x="372.68159" y="440"/>
			<point x="412" y="409.35821"/>
			<point x="412" y="281" type="curve" smooth="yes"/>
			<point x="412" y="258" type="line"/>
			<point x="412" y="167"/>
			<point x="398" y="75"/>
			<point x="298" y="75" type="curve" smooth="yes"/>
			<point x="254.28358" y="75"/>
			<point x="205" y="106"/>
			<point x="170" y="142" type="curve"/>
			<point x="191" y="74" type="line"/>
			<point x="191" y="699" type="line" smooth="yes"/>
			<point x="191" y="761.68657"/>
			<point x="176.80597" y="780"/>
			<point x="138" y="780" type="curve" smooth="yes"/>
			<point x="103.17413" y="780"/>
			<point x="68.8806" y="770.97015"/>
			<point x="45" y="765" type="curve"/>
			<point x="52" y="700" type="line"/>
			<point x="115" y="703" type="line"/>
			<point x="96" y="732" type="line"/>
			<point x="106" y="634"/>
			<point x="106" y="488"/>
			<point x="106" y="389" type="curve" smooth="yes"/>
			<point x="106" y="279"/>
			<point x="104" y="107"/>
			<point x="96" y="10" type="curve"/>
			<point x="101" y="0" type="line"/>
			<point x="146" y="0" type="line"/>
			<point x="186" y="85" type="line"/>
			<point x="136" y="62" type="line"/>
			<point x="232" y="62" type="line"/>
			<point x="169" y="101" type="line"/>
			<point x="211" y="30"/>
			<point x="249" y="-10"/>
		</contour>
	</outline>
</glyph>
<glyph name="c" format="2">
	<advance width="488"/>
	<unicode hex="0063"/>
	<outline>
		<contour>
			<point x="255" y="-10" type="curve" smooth="yes"/>
			<point x="334.60199" y="-10"/>
			<point x="393.24378" y="13.14428"/>
			<point x="442" y="42" type="curve"/>
			<point x="443" y="45" type="line"/>
			<point x="419" y="96" type="line"/>
			<point x="416" y="97" type="line"/>
			<point x="371.22388" y="79.08955"/>
			<point x="332.68657" y="65"/>
			<point x="270" y="65" type="curve" smooth="yes"/>
			<point x="182.43781" y="65"/>
			<point x="145" y="121.68159"/>
			<point x="145" y="258" type="curve" smooth="yes"/>
			<point x="145" y="399.29353"/>
			<point x="188.36816" y="445"/>
			<point x="262" y="445" type="curve" smooth="yes"/>
			<point x="326.67662" y="445"/>
			<point x="349.06965" y="409.62189"/>
			<point x="363" y="334" type="curve"/>
			<point x="365" y="332" type="line"/>
			<point x="437" y="337" type="line"/>
			<point x="439" y="339" type="line"/>
			<point x="439" y="445.46766"/>
			<point x="389.38806" y="520"/>
			<point x="267" y="520" type="curve" smooth="yes"/>
			<point x="123.71642" y="520"/>
			<point x="55" y="430.1194"/>
			<point x="55" y="254" type="curve" smooth="yes"/>
			<point x="55" y="73.9005"/>
			<point x="124.65174" y="-10"/>
		</contour>
	</outline>
</glyph>
<glyph name="g" format="2">
	<advance width="501"/>
	<unicode hex="0067"/>
	<guideline x="30" y="-85" angle="0"/>
	<outline>
		<contour>
			<point x="239" y="-230" type="curve" smooth="yes"/>
			<point x="378" y="-230"/>
			<point x="476" y="-170"/>
			<point x="476" y="-72" type="curve" smooth="yes"/>
			<point x="476" y="15"/>
			<point x="410" y="51"/>
			<point x="292" y="60" type="curve" smooth="yes"/>
			<point x="208" y="67"/>
			<point x="166" y="83"/>
			<point x="166" y="107" type="curve" smooth="yes"/>
			<point x="166" y="126"/>
			<point x="183" y="139"/>
			<point x="188" y="146" type="curve"/>
			<point x="142" y="163" type="line"/>
			<point x="98" y="143"/>
			<point x="76" y="112"/>
			<point x="76" y="82" type="curve" smooth="yes"/>
			<point x="76" y="7"/>
			<point x="135" y="-9"/>
			<point x="260" y="-20" type="curve" smooth="yes"/>
			<point x="351" y="-28"/>
			<point x="386" y="-44"/>
			<point x="386" y="-76" type="curve" smooth="yes"/>
			<point x="386" y="-125"/>
			<point x="332" y="-160"/>
			<point x="254" y="-160" type="curve" smooth="yes"/>
			<point x="175" y="-160"/>
			<point x="120" y="-125"/>
			<point x="120" y="-76" type="curve" smooth="yes"/>
			<point x="120" y="-28.98507"/>
			<point x="150.33831" y="14"/>
			<point x="218" y="14" type="curve"/>
			<point x="148" y="36" type="line"/>
			<point x="95.13207" y="23.0324"/>
			<point x="30" y="-1.48066"/>
			<point x="30" y="-72" type="curve" smooth="yes"/>
			<point x="30" y="-170"/>
			<point x="116" y="-230"/>
		</contour>
		<contour>
			<point x="246" y="128" type="curve" smooth="yes"/>
			<point x="366" y="128"/>
			<point x="442" y="205"/>
			<point x="442" y="327" type="curve" smooth="yes"/>
			<point x="442" y="446"/>
			<point x="366" y="520"/>
			<point x="246" y="520" type="curve" smooth="yes"/>
			<point x="133" y="520"/>
			<point x="62" y="446"/>
			<point x="62" y="327" type="curve" smooth="yes"/>
			<point x="62" y="205"/>
			<point x="133" y="128"/>
		</contour>
		<contour>
			<point x="252" y="203" type="curve" smooth="yes"/>
			<point x="182" y="203"/>
			<point x="152" y="242"/>
			<point x="152" y="330" type="curve" smooth="yes"/>
			<point x="152" y="410"/>
			<point x="182" y="445"/>
			<point x="252" y="445" type="curve" smooth="yes"/>
			<point x="322" y="445"/>
			<point x="352" y="410"/>
			<point x="352" y="330" type="curve" smooth="yes"/>
			<point x="352" y="242"/>
			<point x="322" y="203"/>
		</contour>
		<contour>
			<point x="355" y="493" type="line"/>
			<point x="355" y="550" type="line"/>
			<point x="310" y="505" type="line"/>
			<point x="469" y="550" type="line"/>
			<point x="453" y="621" type="line"/>
			<point x="342" y="621"/>
			<point x="297" y="608"/>
			<point x="297" y="543" type="curve" smooth="yes"/>
			<point x="297" y="531"/>
			<point x="298" y="518"/>
			<point x="301" y="504" type="curve"/>
		</contour>
	</outline>
</glyph>
<glyph name="i" format="2">
	<advance width="290"/>
	<unicode hex="0069"/>
	<outline>
		<contour>
			<point x="115" y="0" type="line"/>
			<point x="210" y="0" type="line"/>
			<point x="215" y="10" type="line"/>
			<point x="206" y="86"/>
			<point x="205" y="195"/>
			<point x="205" y="275" type="curve" smooth="yes"/>
			<point x="205" y="458" type="line" smooth="yes"/>
			<point x="205" y="498.79602"/>
			<point x="190.79104" y="520"/>
			<point x="149" y="520" type="curve" smooth="yes"/>
			<point x="120.14428" y="520"/>
			<point x="70.87065" y="509.97015"/>
			<point x="45" y="504" type="curve"/>
			<point x="52" y="438" type="line"/>
			<point x="129" y="443" type="line"/>
			<point x="110" y="472" type="line"/>
			<point x="117" y="423"/>
			<point x="120" y="335"/>
			<point x="120" y="275" type="curve" smooth="yes"/>
			<point x="120" y="202"/>
			<point x="118" y="79"/>
			<point x="110" y="10" type="curve"/>
		</contour>
		<contour>
			<point x="142" y="618" type="curve" smooth="yes"/>
			<point x="179" y="618"/>
			<point x="206" y="648"/>
			<point x="206" y="686" type="curve" smooth="yes"/>
			<point x="206" y="723"/>
			<point x="180" y="748"/>
			<point x="142" y="748" type="curve" smooth="yes"/>
			<point x="104" y="748"/>
			<point x="76" y="724"/>
			<point x="76" y="686" type="curve" smooth="yes"/>
			<point x="76" y="648"/>
			<point x="101" y="618"/>
		</contour>
	</outline>
</glyph>
<glyph name="j" format="2">
	<advance width="286"/>
	<unicode hex="006A"/>
	<outline>
		<contour>
			<point x="48" y="-226" type="curve" smooth="yes"/>
			<point x="124" y="-226"/>
			<point x="207" y="-187"/>
			<point x="207" y="-59" type="curve" smooth="yes"/>
			<point x="207" y="245" type="line" smooth="yes"/>
			<point x="207" y="308"/>
			<point x="210" y="394"/>
			<point x="211" y="457" type="curve" smooth="yes"/>
			<point x="211" y="498"/>
			<point x="197" y="519"/>
			<point x="155" y="519" type="curve" smooth="yes"/>
			<point x="126" y="519"/>
			<point x="77" y="509"/>
			<point x="51" y="503" type="curve"/>
			<point x="58" y="437" type="line"/>
			<point x="162" y="444" type="line"/>
			<point x="116" y="462" type="line"/>
			<point x="118" y="416"/>
			<point x="122" y="306"/>
			<point x="122" y="245" type="curve" smooth="yes"/>
			<point x="122" y="-41" type="line" smooth="yes"/>
			<point x="122" y="-133"/>
			<point x="81" y="-159"/>
			<point x="36" y="-159" type="curve" smooth="yes"/>
			<point x="28" y="-159"/>
			<point x="20" y="-158"/>
			<point x="11" y="-157" type="curve"/>
			<point x="6" y="-159" type="line"/>
			<point x="-6" y="-216" type="line"/>
			<point x="-3" y="-220" type="line"/>
			<point x="13" y="-224"/>
			<point x="30" y="-226"/>
		</contour>
		<contour>
			<point x="142" y="619" type="curve" smooth="yes"/>
			<point x="179" y="619"/>
			<point x="207" y="648"/>
			<point x="207" y="686" type="curve" smooth="yes"/>
			<point x="207" y="723"/>
			<point x="180" y="749"/>
			<point x="142" y="749" type="curve" smooth="yes"/>
			<point x="104" y="749"/>
			<point x="77" y="724"/>
			<point x="77" y="686" type="curve" smooth="yes"/>
			<point x="77" y="648"/>
			<point x="101" y="619"/>
		</contour>
	</outline>
</glyph>
<glyph name="k" format="2">
	<advance width="541"/>
	<unicode hex="006B"/>
	<outline>
		<contour>
			<point x="459" y="-9" type="curve" smooth="yes"/>
			<point x="484" y="-9"/>
			<point x="513" y="5"/>
			<point x="546" y="37" type="curve"/>
			<point x="526" y="89" type="line"/>
			<point x="439" y="79" type="line"/>
			<point x="479" y="52" type="line"/>
			<point x="337" y="303" type="line"/>
			<point x="337" y="269" type="line"/>
			<point x="399" y="345"/>
			<point x="449" y="422"/>
			<point x="510" y="499" type="curve"/>
			<point x="506" y="510" type="line"/>
			<point x="415" y="510" type="line"/>
			<point x="406" y="501" type="line"/>
			<point x="359" y="431"/>
			<point x="309" y="360"/>
			<point x="257" y="301" type="curve"/>
			<point x="247" y="273" type="line"/>
			<point x="326" y="147"/>
			<point x="374" y="-9"/>
		</contour>
		<contour>
			<point x="134" y="233" type="line"/>
			<point x="324" y="233" type="line"/>
			<point x="324" y="316" type="line"/>
			<point x="134" y="316" type="line"/>
		</contour>
		<contour>
			<point x="109" y="0" type="line"/>
			<point x="208" y="0" type="line"/>
			<point x="213" y="10" type="line"/>
			<point x="207" y="93"/>
			<point x="203" y="252"/>
			<point x="203" y="352" type="curve" smooth="yes"/>
			<point x="203" y="459"/>
			<point x="208" y="696.60697"/>
			<point x="208" y="718" type="curve" smooth="yes"/>
			<point x="208" y="756.80597"/>
			<point x="191.77612" y="780"/>
			<point x="147" y="780" type="curve" smooth="yes"/>
			<point x="115.1592" y="780"/>
			<point x="75.84577" y="769.9602"/>
			<point x="45" y="762" type="curve"/>
			<point x="53" y="699" type="line"/>
			<point x="124" y="703" type="line"/>
			<point x="103" y="732" type="line"/>
			<point x="109" y="646"/>
			<point x="114" y="487"/>
			<point x="114" y="356" type="curve" smooth="yes"/>
			<point x="114" y="244"/>
			<point x="110" y="93"/>
			<point x="104" y="10" type="curve"/>
		</contour>
	</outline>
</glyph>
<glyph name="n" format="2">
	<advance width="596"/>
	<unicode hex="006E"/>
	<anchor x="-228" y="510" name="top"/>
	<outline>
		<contour>
			<point x="466" y="-10" type="curve" smooth="yes"/>
			<point x="488.88557" y="-10"/>
			<point x="520.13433" y="-4.9801"/>
			<point x="547" y="-1" type="curve"/>
			<point x="551" y="64" type="line"/>
			<point x="457" y="83" type="line"/>
			<point x="499" y="32" type="line"/>
			<point x="499" y="365" type="line" smooth="yes"/>
			<point x="499" y="470.47264"/>
			<point x="439.52239" y="520"/>
			<point x="344" y="520" type="curve" smooth="yes"/>
			<point x="242.50746" y="520"/>
			<point x="188.93532" y="447.73632"/>
			<point x="176" y="395" type="curve"/>
			<point x="213" y="446" type="line"/>
			<point x="179" y="446" type="line"/>
			<point x="189" y="413" type="line"/>
			<point x="189" y="458" type="line" smooth="yes"/>
			<point x="189" y="498.79602"/>
			<point x="174.79602" y="520"/>
			<point x="134" y="520" type="curve" smooth="yes"/>
			<point x="108.12935" y="520"/>
			<point x="73.85572" y="511.96517"/>
			<point x="45" y="505" type="curve"/>
			<point x="52" y="440" type="line"/>
			<point x="113" y="443" type="line"/>
			<point x="94" y="472" type="line"/>
			<point x="102" y="423"/>
			<point x="104" y="330"/>
			<point x="104" y="275" type="curve" smooth="yes"/>
			<point x="104" y="198"/>
			<point x="102" y="77"/>
			<point x="94" y="10" type="curve"/>
			<point x="99" y="0" type="line"/>
			<point x="194" y="0" type="line"/>
			<point x="199" y="10" type="line"/>
			<point x="192" y="70"/>
			<point x="189" y="179"/>
			<point x="189" y="251" type="curve" smooth="yes"/>
			<point x="189" y="373.38806"/>
			<point x="220.43781" y="440"/>
			<point x="308" y="440" type="curve" smooth="yes"/>
			<point x="389.59204" y="440"/>
			<point x="414" y="393.40796"/>
			<point x="414" y="275" type="curve" smooth="yes"/>
			<point x="414" y="215"/>
			<point x="410" y="125"/>
			<point x="410" y="65" type="curve" smooth="yes"/>
			<point x="410" y="13.25871"/>
			<point x="434.1592" y="-10"/>
		</contour>
	</outline>
</glyph>
<glyph name="o" format="2">
	<advance width="523"/>
	<unicode hex="006F"/>
	<guideline x="-23" y="461" angle="0" identifier="7lZhvwE96q"/>
	<anchor x="261" y="520" name="top"/>
	<outline>
		<contour>
			<point x="261" y="-10" type="curve" smooth="yes"/>
			<point x="397.31841" y="-10"/>
			<point x="468" y="80.87065"/>
			<point x="468" y="255" type="curve" smooth="yes"/>
			<point x="468" y="429.12935"/>
			<point x="397.31841" y="520"/>
			<point x="261" y="520" type="curve" smooth="yes"/>
			<point x="125.67662" y="520"/>
			<point x="55" y="429.12935"/>
			<point x="55" y="255" type="curve" smooth="yes"/>
			<point x="55" y="80.87065"/>
			<point x="125.67662" y="-10"/>
		</contour>
		<contour>
			<point x="261" y="65" type="curve" smooth="yes"/>
			<point x="182.39303" y="65"/>
			<point x="145" y="126.64179"/>
			<point x="145" y="255" type="curve" smooth="yes"/>
			<point x="145" y="383.35821"/>
			<point x="182.39303" y="445"/>
			<point x="261" y="445" type="curve" smooth="yes"/>
			<point x="340.60199" y="445"/>
			<point x="378" y="383.35821"/>
			<point x="378" y="255" type="curve" smooth="yes"/>
			<point x="378" y="126.64179"/>
			<point x="340.60199" y="65"/>
		</contour>
	</outline>
</glyph>
<glyph name="p" format="2">
	<advance width="562"/>
	<unicode hex="0070"/>
	<outline>
		<contour>
			<point x="102" y="-220" type="line"/>
			<point x="204" y="-220" type="line"/>
			<point x="209" y="-210" type="line"/>
			<point x="192" y="-5"/>
			<point x="192" y="30"/>
			<point x="192" y="244" type="curve" smooth="yes"/>
			<point x="192" y="389.27363"/>
			<point x="237.37313" y="440"/>
			<point x="312" y="440" type="curve" smooth="yes"/>
			<point x="378.66667" y="440"/>
			<point x="412" y="392.42289"/>
			<point x="412" y="277" type="curve" smooth="yes"/>
			<point x="412" y="252" type="line" smooth="yes"/>
			<point x="412" y="132.59701"/>
			<point x="372.70647" y="70"/>
			<point x="302" y="70" type="curve" smooth="yes"/>
			<point x="245" y="70"/>
			<point x="224.74627" y="86.14428"/>
			<point x="174" y="115" type="curve"/>
			<point x="174" y="40" type="line"/>
			<point x="214" y="40" type="line"/>
			<point x="177" y="101" type="line"/>
			<point x="195" y="21"/>
			<point x="252.37811" y="-10"/>
			<point x="328" y="-10" type="curve" smooth="yes"/>
			<point x="438.44776" y="-10"/>
			<point x="507" y="86.84577"/>
			<point x="507" y="256" type="curve" smooth="yes"/>
			<point x="507" y="281" type="line" smooth="yes"/>
			<point x="507" y="442.19403"/>
			<point x="447.48756" y="520"/>
			<point x="345" y="520" type="curve" smooth="yes"/>
			<point x="253.45771" y="520"/>
			<point x="198.91045" y="471.60697"/>
			<point x="181" y="393" type="curve"/>
			<point x="211" y="452" type="line"/>
			<point x="164" y="452" type="line"/>
			<point x="193" y="347" type="line"/>
			<point x="193" y="448" type="line" smooth="yes"/>
			<point x="193" y="498.74627"/>
			<point x="183.78607" y="520"/>
			<point x="141" y="520" type="curve" smooth="yes"/>
			<point x="111.10779" y="520"/>
			<point x="70.83582" y="511.9602"/>
			<point x="38" y="504" type="curve"/>
			<point x="45" y="439" type="line"/>
			<point x="113" y="442" type="line"/>
			<point x="94" y="472" type="line"/>
			<point x="103" y="312"/>
			<point x="105" y="333"/>
			<point x="107" y="164" type="curve" smooth="yes"/>
			<point x="109" y="-3"/>
			<point x="106" y="-61"/>
			<point x="97" y="-210" type="curve"/>
		</contour>
	</outline>
</glyph>
<glyph name="x" format="2">
	<advance width="480"/>
	<unicode hex="0078"/>
	<outline>
		<contour>
			<point x="353" y="0" type="line"/>
			<point x="460" y="0" type="line"/>
			<point x="465" y="11" type="line"/>
			<point x="337.63682" y="168.21393"/>
			<point x="198.73134" y="383.58209"/>
			<point x="145" y="500" type="curve"/>
			<point x="135" y="510" type="line"/>
			<point x="28" y="510" type="line"/>
			<point x="23" y="500" type="line"/>
			<point x="124.49254" y="372.63682"/>
			<point x="266.38308" y="144.32836"/>
			<point x="343" y="10" type="curve"/>
		</contour>
		<contour>
			<point x="20" y="0" type="line"/>
			<point x="115" y="0" type="line"/>
			<point x="125" y="10" type="line"/>
			<point x="174.75124" y="104.52736"/>
			<point x="200.33333" y="143.50249"/>
			<point x="267" y="244" type="curve"/>
			<point x="208" y="294" type="line"/>
			<point x="125.41294" y="156.68657"/>
			<point x="91.61692" y="107.51741"/>
			<point x="15" y="11" type="curve"/>
		</contour>
		<contour>
			<point x="263" y="221" type="line"/>
			<point x="315.73632" y="314.53234"/>
			<point x="375.34826" y="404.47761"/>
			<point x="445" y="500" type="curve"/>
			<point x="440" y="510" type="line"/>
			<point x="343" y="510" type="line"/>
			<point x="335" y="500" type="line"/>
			<point x="287.23881" y="391.54229"/>
			<point x="239.70647" y="320.59701"/>
			<point x="181" y="240" type="curve"/>
		</contour>
	</outline>
</glyph>
<glyph name="z" format="2">
	<advance width="450"/>
	<unicode hex="007A"/>
	<outline>
		<contour>
			<point x="28" y="0" type="line"/>
			<point x="73" y="3"/>
			<point x="145.42289" y="4.99502"/>
			<point x="230" y="4" type="curve" smooth="yes"/>
			<point x="270.79602" y="3.50249"/>
			<point x="412.06468" y="2.48756"/>
			<point x="425" y="0" type="curve"/>
			<point x="430" y="10" type="line"/>
			<point x="430" y="81" type="line"/>
			<point x="425" y="90" type="line"/>
			<point x="327" y="84"/>
			<point x="265" y="82"/>
			<point x="124" y="82" type="curve"/>
			<point x="169" y="59" type="line"/>
			<point x="228.70149" y="193.32836"/>
			<point x="343.40796" y="372.63682"/>
			<point x="425" y="500" type="curve"/>
			<point x="420" y="510" type="line"/>
			<point x="375.22388" y="507.01493"/>
			<point x="307.57711" y="505.00498"/>
			<point x="223" y="506" type="curve" smooth="yes"/>
			<point x="182.20398" y="506.49751"/>
			<point x="70.93532" y="507.51244"/>
			<point x="58" y="510" type="curve"/>
			<point x="53" y="500" type="line"/>
			<point x="53" y="429" type="line"/>
			<point x="58" y="420" type="line"/>
			<point x="157" y="427"/>
			<point x="196" y="428"/>
			<point x="329" y="428" type="curve"/>
			<point x="291" y="486" type="line"/>
			<point x="257" y="370"/>
			<point x="133" y="168"/>
			<point x="23" y="11" type="curve"/>
		</contour>
	</outline>
</glyph>
<glyph name="acute" format="2">
	<advance width="435"/>
	<unicode hex="00B4"/>
	<anchor x="186" y="510" name="_top"/>
	<outline>
		<contour>
			<point x="106" y="576" type="line"/>
			<point x="113" y="576" type="line"/>
			<point x="348" y="693" type="line"/>
			<point x="348" y="703" type="line"/>
			<point x="293" y="778" type="line"/>
			<point x="283" y="778" type="line"/>
			<point x="86" y="617" type="line"/>
			<point x="86" y="609" type="line"/>
		</contour>
	</outline>
</glyph>
<glyph name="J.001" format="2">
	<advance width="462"/>
	<outline>
		<contour>
			<point x="214" y="-10" type="curve" smooth="yes"/>
			<point x="324.66667" y="-10"/>
			<point x="392" y="80.33333"/>
			<point x="392" y="223" type="curve" smooth="yes"/>
			<point x="392" y="700" type="line"/>
			<point x="331" y="699" type="line"/>
			<point x="265" y="697" type="line"/>
			<point x="182" y="699" type="line"/>
			<point x="132" y="700" type="line"/>
			<point x="122" y="695" type="line"/>
			<point x="122" y="616" type="line"/>
			<point x="132" y="611" type="line"/>
			<point x="183" y="615" type="line" smooth="yes"/>
			<point x="216" y="617"/>
			<point x="261" y="618"/>
			<point x="317" y="618" type="curve"/>
			<point x="298" y="640" type="line"/>
			<point x="299" y="522" type="line"/>
			<point x="300" y="348" type="line" smooth="yes"/>
			<point x="301" y="238"/>
			<point x="318" y="75"/>
			<point x="208" y="75" type="curve" smooth="yes"/>
			<point x="153.33333" y="75"/>
			<point x="123" y="118.33333"/>
			<point x="123" y="181" type="curve"/>
			<point x="119" y="191" type="line"/>
			<point x="34" y="191" type="line"/>
			<point x="30" y="181" type="line"/>
			<point x="30" y="58.33333"/>
			<point x="79.33333" y="-10"/>
		</contour>
	</outline>
</glyph>
<glyph name="a.alt" format="2">
	<advance width="496"/>
	<outline>
		<contour>
			<point x="207" y="-10" type="curve" smooth="yes"/>
			<point x="286.60199" y="-10"/>
			<point x="326.11443" y="59.23881"/>
			<point x="349" y="107" type="curve"/>
			<point x="337" y="122" type="line"/>
			<point x="337" y="122" type="line"/>
			<point x="334.01493" y="107.07463"/>
			<point x="333" y="83.9005"/>
			<point x="333" y="64" type="curve" smooth="yes"/>
			<point x="333" y="20.21891"/>
			<point x="351.18905" y="-10"/>
			<point x="389" y="-10" type="curve" smooth="yes"/>
			<point x="416.8607" y="-10"/>
			<point x="454.01242" y="-4.99751"/>
			<point x="479" y="0" type="curve"/>
			<point x="483" y="79" type="line"/>
			<point x="387" y="98" type="line"/>
			<point x="431" y="44" type="line"/>
			<point x="431" y="70.86567"/>
			<point x="429.83333" y="100.71144"/>
			<point x="427.5" y="133.53731" type="curve" smooth="yes"/>
			<point x="425.16667" y="166.36318"/>
			<point x="424" y="217.85075"/>
			<point x="424" y="288" type="curve" smooth="yes"/>
			<point x="424" y="346.20896"/>
			<point x="425.02983" y="392.52823"/>
			<point x="427.08949" y="426.95783" type="curve" smooth="yes"/>
			<point x="429.14914" y="461.38743"/>
			<point x="431.45265" y="485.73482"/>
			<point x="434" y="500" type="curve"/>
			<point x="429" y="510" type="line"/>
			<point x="352" y="517" type="line"/>
			<point x="344" y="510" type="line"/>
			<point x="327" y="416" type="line"/>
			<point x="327" y="260" type="line" smooth="yes"/>
			<point x="327" y="199.30348"/>
			<point x="319.71393" y="154.96269"/>
			<point x="305.14179" y="126.97761" type="curve" smooth="yes"/>
			<point x="290.56965" y="98.99254"/>
			<point x="268.85572" y="85"/>
			<point x="240" y="85" type="curve" smooth="yes"/>
			<point x="179.30348" y="85"/>
			<point x="147" y="164.56219"/>
			<point x="147" y="277" type="curve" smooth="yes"/>
			<point x="147" y="389.43781"/>
			<point x="175.30846" y="425"/>
			<point x="237" y="425" type="curve" smooth="yes"/>
			<point x="268.8408" y="425"/>
			<point x="312.19403" y="411.87065"/>
			<point x="351" y="386" type="curve"/>
			<point x="377" y="440" type="line"/>
			<point x="310" y="440" type="line"/>
			<point x="330" y="429" type="line"/>
			<point x="313.08458" y="465.81592"/>
			<point x="276.68657" y="520"/>
			<point x="214" y="520" type="curve" smooth="yes"/>
			<point x="118.47761" y="520"/>
			<point x="37" y="479.89055"/>
			<point x="37" y="258" type="curve" smooth="yes"/>
			<point x="37" y="79.89055"/>
			<point x="94.56219" y="-10"/>
		</contour>
	</outline>
</glyph>
